 <svg
          version="1.1"
          id="wave"
          xmlns="http://www.w3.org/2000/svg"
          xmlns:xlink="http://www.w3.org/1999/xlink"
          x="0px"
          y="0px"
          viewBox="0 0 1440 211"
          style="enable-background: new 0 0 1440 211"
          xml:space="preserve"
        >
          <path
            class="st2"
            d="M-5,0.5l30.1,4.4c30.1,4.7,90.3,12.9,150.5,8.8C235.8,9.6,296-8.5,356.3,4.9c60.2,12.9,120.4,57.3,180.6,65.8
  c60.2,8.8,120.4-17.5,180.6-8.7c60.2,8.5,120.4,52.9,180.6,74.5c60.2,22,120.4,22,180.6,0c60.2-21.6,120.4-66,180.6-83.3
  c60.2-17.3,120.4-9,150.5-4.4l30.1,4.4V211h-30.1c-30.1,0-90.3,0-150.5,0c-60.2,0-120.4,0-180.6,0c-60.2,0-120.4,0-180.6,0
  s-120.4,0-180.6,0s-120.4,0-180.6,0s-120.4,0-180.6,0s-120.4,0-180.6,0s-120.4,0-150.5,0H-5L-5,0.5z"
          />
        </svg>