  <svg
          version="1.1"
          id="wave-2"
          xmlns="http://www.w3.org/2000/svg"
          xmlns:xlink="http://www.w3.org/1999/xlink"
          x="0px"
          y="0px"
          viewBox="0 0 1440 189"
          style="enable-background: new 0 0 1440 189"
          xml:space="preserve"
        >
          <path
            class="st0"
            d="M-5,0.5l30.1,3.9c30.1,4.2,90.4,11.6,150.6,7.9C236,8.6,296.3-7.6,356.5,4.4C416.8,15.9,477,55.7,537.3,63.3
  c60.3,7.9,120.5-15.7,180.8-7.8c60.3,7.6,120.5,47.4,180.8,66.7c60.3,19.7,120.5,19.7,180.8,0c60.3-19.4,120.5-59.1,180.8-74.6
  c60.3-15.5,120.5-8.1,150.6-3.9l30.1,3.9V189h-30.1c-30.1,0-90.4,0-150.6,0s-120.5,0-180.8,0s-120.5,0-180.8,0s-120.5,0-180.8,0
  s-120.5,0-180.8,0s-120.5,0-180.8,0s-120.5,0-180.8,0s-120.5,0-150.6,0H-5L-5,0.5z"
          />
        </svg>